:SAMPLES-PER-SECOND 30
:FULLY-SPECIFIED
:DEGREES
814
root  -14.4728 37.1431 -0.414522 -147.742 86.7603 -141.162
RightUpLeg  -23.5525 -9.77143 6.40877
RightLeg  27.2173 -0.226197 -0.371886
RightFoot  1.98781 0.944709 -7.93763
RightToes  -5.8209e-011 0 -3.6325e-017
Spine  8.2156 -3.1136 9.78769
Spine1  11.994 -2.56322 1.28653
HEad  -17.453 0.347204 -2.4689
LeftShoulder1  -0.138668 3.88796 -29.9832
LeftArm  -12.6662 13.3327 -32.0989
LeftForeArm  95.9671 -76.5839 -123.205
LeftHand  -0.149113 0.518466 3.4891
RightShoulder  -0.437597 -4.77856 27.3848
RightArm  -13.425 -17.9315 34.5518
RightForeArm  119.601 68.2336 149.484
RightHand  -0.155827 1.56412 -2.74717
LeftUpLeg  20.0359 8.43541 7.75965
LeftLeg  34.3285 -2.09869 -1.16844
LeftFoot  -15.312 -0.48464 -17.0332
LeftToes  -8.31281e-010 4.41007e-011 3.74621e-011
815
root  -13.1606 37.1113 -0.217998 -142.594 86.1074 -137.025
RightUpLeg  -23.9589 -9.329 7.27524
RightLeg  30.2792 -1.04256 -0.905272
RightFoot  -1.06922 0.753484 -8.43187
RightToes  -5.8209e-011 0 -3.6325e-017
Spine  8.08776 -2.86959 9.22129
Spine1  11.3568 -2.82225 3.80371
HEad  -17.2673 0.503674 -3.02612
LeftShoulder1  -0.113635 3.81538 -30.3408
LeftArm  -12.1742 13.4221 -31.7792
LeftForeArm  94.5685 -76.7372 -122.063
LeftHand  -0.206532 -0.261897 4.30109
RightShoulder  -0.369429 -4.59478 26.8319
RightArm  -12.8855 -17.8978 34.0347
RightForeArm  118.259 68.3082 149.222
RightHand  -0.23736 1.51414 -4.13482
LeftUpLeg  12.7931 6.7983 8.58858
LeftLeg  45.976 -1.38808 -1.05404
LeftFoot  -1.90192 1.20591 -15.9466
LeftToes  -8.31281e-010 4.41007e-011 3.74621e-011
816
root  -11.8931 37.127 -0.163235 -138.012 84.4193 -132.432
RightUpLeg  -22.5915 -10.332 8.55663
RightLeg  32.0133 -1.31977 -1.14769
RightFoot  -3.94583 0.526113 -8.51777
RightToes  -5.8209e-011 0 -3.6325e-017
Spine  8.02059 -3.26969 11.5616
Spine1  11.8353 -2.85508 3.66132
HEad  -17.7289 -0.0880859 -2.76231
LeftShoulder1  -0.10122 3.78211 -30.2144
LeftArm  -11.8664 12.5349 -32.0944
LeftForeArm  93.9981 -76.8774 -121.155
LeftHand  -0.148315 0.904819 3.77573
RightShoulder  -0.399996 -4.68324 26.9122
RightArm  -13.0204 -17.9863 33.3109
RightForeArm  119.129 68.0356 149.726
RightHand  -0.185749 1.3529 -3.33492
LeftUpLeg  5.88358 3.91353 9.45377
LeftLeg  56.1233 -0.299592 -0.0445723
LeftFoot  11.8858 2.03349 -9.91364
LeftToes  -8.31281e-010 4.41007e-011 3.74621e-011
817
root  -10.6613 37.2626 -0.141966 -137.431 83.9742 -131.576
RightUpLeg  -20.4439 -10.8589 8.7062
RightLeg  32.7546 -1.23735 -1.12282
RightFoot  -6.21763 0.332256 -8.34692
RightToes  -5.8209e-011 0 -3.6325e-017
Spine  8.17624 -3.35524 13.2561
Spine1  12.1875 -2.33447 2.56997
HEad  -17.5563 -0.585193 -2.10966
LeftShoulder1  -0.0386012 3.61085 -30.0023
LeftArm  -11.5495 11.7962 -32.4438
LeftForeArm  93.0417 -77.0203 -120.099
LeftHand  -0.173373 0.780147 4.28698
RightShoulder  -0.472222 -4.87982 27.4503
RightArm  -12.9706 -17.6486 32.5221
RightForeArm  117.863 68.1324 149.438
RightHand  -0.22222 1.67146 -3.81198
LeftUpLeg  0.548441 2.11303 9.5319
LeftLeg  62.9926 -0.719063 -0.929167
LeftFoot  11.2223 1.45894 -7.63134
LeftToes  -8.31281e-010 4.41007e-011 3.74621e-011
818
root  -9.41767 37.5514 -0.0884281 -140.396 84.3394 -134.075
RightUpLeg  -17.2653 -10.8544 7.97693
RightLeg  32.0778 -1.28972 -1.1367
RightFoot  -8.00665 0.184888 -8.17763
RightToes  -5.8209e-011 0 -3.6325e-017
Spine  8.36023 -3.30084 13.2938
Spine1  12.5132 -2.0207 2.11153
HEad  -17.3318 -0.467753 -1.93639
LeftShoulder1  -0.083124 3.73313 -30.0855
LeftArm  -11.622 11.5461 -32.5255
LeftForeArm  92.3659 -77.1129 -119.377
LeftHand  -0.218884 0.0403356 4.78382
RightShoulder  -0.460061 -4.84705 27.3569
RightArm  -12.8039 -16.5732 32.5718
RightForeArm  116.528 68.9269 148.062
RightHand  -0.230517 1.61783 -3.98691
LeftUpLeg  -4.19352 0.521634 8.74109
LeftLeg  66.6606 -1.03353 -1.90653
LeftFoot  8.24626 1.22325 -7.38369
LeftToes  -8.31281e-010 4.41007e-011 3.74621e-011
819
root  -8.13348 37.8666 -0.0450961 -143.217 85.2322 -136.756
RightUpLeg  -14.1182 -10.966 6.90609
RightLeg  30.8818 -0.859177 -0.818409
RightFoot  -9.65436 0.0499881 -7.79192
RightToes  -5.8209e-011 0 -3.6325e-017
Spine  7.99307 -3.01968 12.943
Spine1  12.7366 -1.62415 1.65833
HEad  -16.6013 -0.0353743 -2.41042
LeftShoulder1  -0.122794 3.83932 -30.4965
LeftArm  -11.89 11.5968 -32.1179
LeftForeArm  92.3837 -77.113 -119.38
LeftHand  -0.157088 0.999254 4.0681
RightShoulder  -0.439634 -4.79479 27.1368
RightArm  -12.619 -15.9845 32.9339
RightForeArm  116.059 69.2287 147.511
RightHand  -0.234339 0.99339 -4.37399
LeftUpLeg  -8.53878 -0.688704 7.55634
LeftLeg  67.3235 -0.931547 -1.73503
LeftFoot  6.67306 1.08817 -7.10195
LeftToes  -8.31281e-010 4.41007e-011 3.74621e-011
820
root  -6.8425 38.1886 -0.00589147 -139.672 86.513 -133.117
RightUpLeg  -10.6834 -10.4295 5.91959
RightLeg  28.9926 -0.19443 -0.372072
RightFoot  -10.9368 -0.0480261 -7.33218
RightToes  -5.8209e-011 0 -3.6325e-017
Spine  7.69118 -2.58876 13.3173
Spine1  12.488 -0.7828 0.172148
HEad  -15.1483 0.0928527 -3.11561
LeftShoulder1  -0.119053 3.83057 -30.2399
LeftArm  -12.3694 12.0263 -31.9831
LeftForeArm  92.8313 -77.0858 -119.661
LeftHand  -0.14353 1.15282 3.80831
RightShoulder  -0.438982 -4.79412 27.1054
RightArm  -12.2309 -15.8011 33.4741
RightForeArm  116.592 69.2363 147.558
RightHand  -0.25637 1.6745 -4.37216
LeftUpLeg  -12.2125 -1.47483 6.45193
LeftLeg  65.3645 -0.65929 -0.899845
LeftFoot  4.6876 0.778657 -5.73042
LeftToes  -8.31281e-010 4.41007e-011 3.74621e-011
